<svg xmlns="http://www.w3.org/2000/svg" version="1.1" xmlns:xlink="http://www.w3.org/1999/xlink" xmlns:svgjs="http://svgjs.dev/svgjs" width="2000" height="469" viewBox="0 0 2000 469"><g transform="matrix(1,0,0,1,-1.2121212121212466,0.9710906816949034)"><svg viewBox="0 0 396 93" data-background-color="#161618" preserveAspectRatio="xMidYMid meet" height="469" width="2000" xmlns="http://www.w3.org/2000/svg" xmlns:xlink="http://www.w3.org/1999/xlink"><g id="tight-bounds" transform="matrix(1,0,0,1,0.2400000000000091,-0.19256169167937287)"><svg viewBox="0 0 395.52 93.38512338335872" height="93.38512338335872" width="395.52"><g><svg viewBox="0 0 517.0479382293695 122.07874571870173" height="93.38512338335872" width="395.52"><g transform="matrix(1,0,0,1,121.52793822936947,38.955663431221026)"><svg viewBox="0 0 395.52 44.167418856259665" height="44.167418856259665" width="395.52"><g><svg viewBox="0 0 395.52 44.167418856259665" height="44.167418856259665" width="395.52"><g><svg viewBox="0 0 395.52 44.167418856259665" height="44.167418856259665" width="395.52"><g transform="matrix(1,0,0,1,0,0)"><svg width="395.52" viewBox="5 -28.85 258.78 28.900000000000002" height="44.167418856259665" data-palette-color="#ffffff"><path d="M5 0L5-21.85 11.25-21.85 11.25-19.7 18.75-21.85 18.75-17.2 11.25-17.2 11.25 0 5 0ZM27.5-15.05L27.5-19.1 21-21.85 21-15.05 27.5-15.05ZM32-3.5L32-18.55 37.85-22 45.75-22 45.75-17.3 38.25-17.3 38.25-5.4 45.75-5.4 45.75-0.05 37.85-0.05 32-3.5ZM61.35-3.5L61.35-18.55 55.5-22 47.55-22 47.55-17.3 55.1-17.3 55.1-5.4 47.55-5.4 47.55-0.05 55.5-0.05 61.35-3.5ZM70.34 0.05L70.34-28.75 76.5-28.75 76.5-22 84.09-22 84.09-17.2 76.5-17.2 76.5 0.05 70.34 0.05ZM100.09 0.05L100.09-18.55 94.44-22 86.3-22 86.3-17.2 93.8-17.2 93.8 0.05 100.09 0.05ZM108.59-22L114.89-22 114.89 0.05 108.59 0.05 108.59-22ZM114.79-28.7L114.79-24.05 108.59-24.05 108.59-28.7 114.79-28.7ZM132.39-17.2L132.39-21.85 139.89-21.85 139.89-17.2 132.39-17.2ZM139.89-7.5L146.19-7.5 146.19-3.45 140.49 0 132.39 0 132.39-5.25 139.89-5.25 139.89-7.5ZM119.39-19.35L130.14-25.3 130.14-5.25 130.14 0 123.89-3.45 123.89-17.2 119.39-17.15 119.39-19.35ZM181.49-9.7L181.49-3.45 175.79 0 167.74 0 167.74-5.25 175.44-5.25 175.44-9.3 167.89-9.3 167.89-13.2 175.79-13.2 181.49-9.7ZM151.69-12.75L151.69-18.4 157.39-21.85 165.49-21.85 165.49-17.2 157.99-17.2 157.99-13.2 165.49-13.2 165.49-9.3 157.39-9.3 151.69-12.75ZM151.69-6.95L157.99-6.95 157.99-5.25 165.49-5.25 165.49 0 157.39 0 151.69-3.45 151.69-6.95ZM181.49-15.05L175.24-15.05 175.24-17.2 167.74-17.2 167.74-21.85 175.79-21.85 181.49-18.4 181.49-15.05ZM217.84-28.75L224.14-25.3 224.14-3.45 218.44 0 207.84 0 207.84-5.7 217.84-5.7 217.84-21.4 207.84-10.8 207.84-19.55 210.89-23.05 208.04-23.05 208.04-28.75 217.84-28.75ZM195.79-23.05L195.79-7.35 205.59-17.75 205.59-9.15 202.74-5.7 205.59-5.7 205.59 0 205.59 0 205.59 0 198.64 0 198.64 0 195.19 0 189.49-3.45 189.49-25.3 195.79-28.75 195.79-28.75 205.59-28.75 205.59-23.05 195.79-23.05ZM229.03-11.5L229.03-28.85 245.18-28.85 245.18-23.15 235.38-23.15 235.38-17.4 245.18-17.4 245.18-11.5 229.03-11.5ZM229.03-9.25L235.38-9.25 235.38-5.75 245.18-5.75 245.18-0.05 234.73-0.05 229.03-3.5 229.03-9.25ZM263.78-28.85L263.78-23.15 247.63-23.15 247.63-28.85 263.78-28.85ZM257.43-17.4L263.78-13.95 263.78-3.5 258.08-0.05 247.63-0.05 247.63-5.75 257.43-5.75 257.43-11.5 247.63-11.5 247.63-17.4 257.43-17.4Z" opacity="1" transform="matrix(1,0,0,1,0,0)" fill="#ffffff" class="undefined-text-0" data-fill-palette-color="primary" id="text-0"></path></svg></g></svg></g></svg></g></svg></g><g><svg viewBox="0 0 111.10107065545911 122.07874571870173" height="122.07874571870173" width="111.10107065545911"><g><svg xmlns="http://www.w3.org/2000/svg" xmlns:xlink="http://www.w3.org/1999/xlink" version="1.1" x="0" y="0" viewBox="103.1 64.01613621810759 793.6999999999999 872.1239129856443" style="enable-background:new 0 0 1000 1000;" xml:space="preserve" height="122.07874571870173" width="111.10107065545911" class="icon-icon-0" data-fill-palette-color="accent" id="icon-0"><g fill="#ffffff" data-fill-palette-color="accent"><g fill="#ffffff" data-fill-palette-color="accent"><path d="M371 409c-30.6 0-55.5 24.6-56 55.1-14.4 7.7-28.5 15-42.8 22-12.3 6.1-15.5 13.7-15.8 26.5-1.5 62.1-3.9 124.2-6 186.3-0.4 12.7-0.8 25.4-1.4 42.7-13.2-7.5-21.8-13.5-31.2-17.6-25.8-11.2-34.5-29.1-31.8-57.7 4.2-43.6 3.7-87.6 5.3-135.5-13.7 6.9-23.3 13-33.7 16.7-20.9 7.4-27 21.3-26.6 43 0.6 38.4-0.9 76.9-3.8 115.1-1.6 21.2 3 34.8 23.2 45.1 25.3 13 48.7 29.8 73 44.8 25.3 15.7 50.7 31.3 79.7 49.2 0.5-13.7 0.8-22.5 1-31.2 2.7-79.2 7.1-158.5 7.1-237.7 0-29.9 6.4-50.5 31.3-62.7 8.4 5 18.2 7.9 28.6 7.9 30.9 0 56-25.1 56-56S401.9 409 371 409zM371 496c-0.2 0-0.3 0-0.4 0h0c-16.9-0.2-30.5-14-30.5-31 0-6.3 1.9-12.1 5.1-17 0 0 0 0 0 0 5.5-8.4 15.1-14 25.9-14h0.1c2.9 0 5.6 0.4 8.3 1.1 13 3.7 22.6 15.7 22.6 29.9C402 482.1 388.1 496 371 496z" fill="#ffffff" data-fill-palette-color="accent"></path><path d="M462 307c-11 0-21.2 3.2-29.9 8.7-10.7-6.9-21.1-13.8-31.5-20.8-11.3-7.7-19.6-6.8-30.9-0.8-54.8 29.2-110.1 57.5-165.3 86.1-11.3 5.9-22.5 11.7-37.9 19.7 0.1-15.2 1.1-25.6 0.1-35.8-2.9-27.9 8.4-44.4 34.7-56 40-17.7 78.1-39.7 120.7-61.8-12.7-8.6-22.7-13.9-31.1-21.2-16.7-14.6-31.8-13.1-50.5-2.1-33.1 19.4-67.4 36.9-102.2 53.1-19.2 9-28.9 19.7-28 42.3 1.1 28.5-2.1 57-3.3 85.6-1.3 29.8-2.4 59.6-3.8 93.6 12.1-6.3 19.9-10.3 27.7-14.4 70.3-36.5 141.6-71.5 210.6-110.4 24-13.5 43.7-18.4 64.5-6.9v0c1.4 29.6 26 53.3 55.9 53.3 30.9 0 56-25.1 56-56S492.9 307 462 307zM492.9 365.8c-1.4 15.8-14.7 28.2-30.9 28.2-8.3 0-15.9-3.3-21.5-8.7-5.9-5.6-9.5-13.6-9.5-22.3 0-15.8 11.8-28.8 27.1-30.8 1.3-0.2 2.6-0.3 3.9-0.3 13.7 0 25.4 9 29.5 21.4 1 3 1.5 6.3 1.5 9.6C493 363.9 493 364.9 492.9 365.8z" fill="#ffffff" data-fill-palette-color="accent"></path></g><path d="M677 824.7c-67.8-41.2-134.6-83.9-203.7-122.7-25.9-14.6-40.7-30.1-39.3-57.4 18.8-9 31.8-28.3 31.8-50.5 0-30.9-25.1-56-56-56s-56 25.1-56 56c0 19.1 9.6 35.9 24.2 46-0.4 17.7-0.9 34.8-1.8 51.8-0.7 13.7 4.3 20.3 15.3 26.8 53.4 31.7 106.3 64.3 159.4 96.5 10.8 6.6 21.7 13.2 36.5 22.2-13 7.8-22.5 12.3-30.6 18.5-22.4 17-42.3 15.8-65.9-0.6-35.9-25-74.5-46.1-115.5-71-0.7 15.3-0.1 26.7-2 37.6-3.8 21.8 5.3 33.9 24.4 44.3 33.7 18.3 66.5 38.5 98.5 59.8 17.7 11.8 31.8 14.4 50.7 1.9 23.8-15.7 49.9-27.8 74.9-41.6 26.1-14.4 52.2-28.8 82-45.3C692 833.8 684.5 829.2 677 824.7zM409.8 625.1c-16.7 0-30.4-13.3-31-29.9v0c0-0.4 0-0.7 0-1.1 0-0.7 0-1.3 0.1-2 0 0 0-0.1 0-0.1v-0.1c0.5-6.6 3-12.6 6.9-17.4 5.7-7 14.3-11.4 24-11.4 17.1 0 31 13.9 31 31 0 7.4-2.6 14.3-7 19.6C428 620.7 419.4 625.1 409.8 625.1z" fill="#ffffff" data-fill-palette-color="accent"></path><path d="M896.8 489.8c-11.9 6.7-19.6 11-27.2 15.3-69.1 38.9-139.1 76.2-206.8 117.4-24.6 15-44.9 20.4-67.3 7.4 0.2-1.9 0.3-3.8 0.3-5.8 0-30.9-25.1-56-56-56s-56 25.1-56 56c0 30.9 25.1 56 56 56 8 0 15.6-1.7 22.5-4.7h0c15.1 9 29.7 17.8 44.1 26.9 11.6 7.3 19.8 6.2 30.9-0.2 53.8-31 108.1-61.2 162.3-91.6 11.1-6.2 22.1-12.5 37.2-20.9 0.4 15.2-0.3 25.6 1.1 35.8 3.8 27.8-6.9 44.6-32.8 57.2-39.4 19.1-76.7 42.3-118.5 65.9 13 8.1 23.2 13.2 31.8 20.2 17.2 14 32.2 12 50.5 0.4 32.4-20.5 66.1-39.2 100.4-56.5 18.9-9.6 28.2-20.7 26.5-43.2-2-28.4 0.2-57.1 0.4-85.7C896.4 553.6 896.5 523.8 896.8 489.8zM539.8 655.1c-13.2 0-24.5-8.3-29-20-1.3-3.4-2-7.1-2-11 0-17.1 13.9-31 31-31 13.7 0 25.4 9 29.5 21.3 1 3 1.5 6.3 1.5 9.7C570.8 641.2 556.8 655.1 539.8 655.1z" fill="#ffffff" data-fill-palette-color="accent"></path><path d="M865.9 397.8c-1.9-38.3-1.7-76.8-0.1-115.2 0.9-21.2-4.2-34.7-24.7-44.3-25.8-12.1-49.7-28.1-74.5-42.4-25.8-14.9-51.8-29.6-81.3-46.5 0 13.7 0 22.5 0 31.3 0 79.3-1.8 158.6 0.9 237.8 1 28-4 48-24.7 61.1-8.2-4.7-17.8-7.5-27.9-7.5-30.9 0-56 25.1-56 56 0 30.9 25.1 56 56 56 30.9 0 56-25.1 56-55.9 12.9-7.4 25.6-14.6 38.5-21.4 12.1-6.5 15.1-14.2 14.9-27-0.6-62.1-0.3-124.2-0.3-186.3v-42.7c13.4 7.1 22.2 12.8 31.7 16.5 26.1 10.3 35.5 27.9 33.7 56.6-2.7 43.7-0.7 87.6-0.7 135.6 13.4-7.3 22.8-13.8 33.2-17.8C861.4 433.5 867 419.4 865.9 397.8zM659.1 545.9c-5.1 7.2-13.1 12.1-22.3 13-1 0.1-2 0.1-3 0.1-3.9 0-7.6-0.7-11-2-11.7-4.4-20-15.8-20-29 0-16.6 13.1-30.2 29.5-31h0c0.5 0 1 0 1.5 0 17.1 0 31 13.9 31 31C664.8 534.7 662.7 540.9 659.1 545.9z" fill="#ffffff" data-fill-palette-color="accent"></path><path d="M627.3 356.9c0.9-14.9 1.9-29.5 3.1-44 1.2-13.6-3.6-20.4-14.4-27.3-52.3-33.5-104.1-67.8-156.1-101.8-10.6-7-21.3-13.9-35.7-23.4 13.3-7.4 22.9-11.6 31.2-17.5 23-16.2 42.8-14.4 65.9 2.8 35.1 26.2 72.9 48.6 113 74.9 1.2-15.3 1-26.6 3.3-37.5 4.5-21.7-4.2-34.1-22.9-45-33.1-19.4-65.2-40.7-96.4-63-17.2-12.4-31.3-15.5-50.6-3.6-24.3 14.9-50.8 26.2-76.2 39.1-26.6 13.5-53.1 27.1-83.4 42.5 11.4 7.5 18.8 12.3 26.2 17.1 66.3 43.4 131.7 88.4 199.5 129.5 24.1 14.7 38.2 29.9 37.6 54.7-17.9 9.3-30.2 28.1-30.2 49.7 0 30.9 25.1 56 56 56s56-25.1 56-56C653 384.3 642.7 366.9 627.3 356.9zM624 419.3c-2.2 3.8-5.1 7.1-8.7 9.7-5.1 3.8-11.5 6-18.3 6-17.1 0-31-13.9-31-31 0-5.6 1.5-10.8 4-15.3 5.3-9.4 15.4-15.7 27-15.7 12.7 0 23.6 7.6 28.4 18.6 1.7 3.8 2.6 8 2.6 12.4C628 409.6 626.5 414.8 624 419.3z" fill="#ffffff" data-fill-palette-color="accent"></path></g></svg></g></svg></g></svg></g><defs></defs></svg><rect width="395.52" height="93.38512338335872" fill="none" stroke="none" visibility="hidden"></rect></g></svg></g></svg>